<?xml version="1.0" encoding="UTF-8"?>
<svg width="10px" height="20px" viewBox="0 0 10 20" version="1.1" xmlns="http://www.w3.org/2000/svg" xmlns:xlink="http://www.w3.org/1999/xlink">
    <!-- Generator: Sketch 57.1 (83088) - https://sketch.com -->
    <title>Group 3</title>
    <desc>Created with Sketch.</desc>
    <defs>
        <polygon id="path-1" points="6.06060606e-05 6.06060606e-05 9.21212121 6.06060606e-05 9.21212121 19.8290303 6.06060606e-05 19.8290303"></polygon>
    </defs>
    <g id="Page-1" stroke="none" stroke-width="1" fill="none" fill-rule="evenodd">
        <g id="Mobile" transform="translate(-191.000000, -4858.000000)">
            <g id="Group-3" transform="translate(191.000000, 4858.000000)">
                <mask id="mask-2" fill="white">
                    <use xlink:href="#path-1"></use>
                </mask>
                <g id="Clip-2"></g>
                <path d="M2.02975758,9.99266667 L2.02975758,19.5793333 C2.02975758,19.7175152 2.14127273,19.8290303 2.27945455,19.8290303 L5.83945455,19.8290303 C5.97763636,19.8290303 6.08915152,19.7175152 6.08915152,19.5793333 L6.08915152,9.83630303 L8.67036364,9.83630303 C8.80006061,9.83630303 8.90793939,9.73690909 8.91884848,9.60781818 L9.16733333,6.67206061 C9.17945455,6.52660606 9.06490909,6.40175758 8.91824242,6.40175758 L6.08915152,6.40175758 L6.08915152,4.31872727 C6.08915152,3.83084848 6.48490909,3.43509091 6.97278788,3.43509091 L8.96248485,3.43509091 C9.10006061,3.43509091 9.21218182,3.3229697 9.21218182,3.18539394 L9.21218182,0.249636364 C9.21218182,0.112060606 9.10006061,-6.06060606e-05 8.96248485,-6.06060606e-05 L5.60127273,-6.06060606e-05 C3.62854545,-6.06060606e-05 2.02975758,1.59872727 2.02975758,3.57145455 L2.02975758,6.40175758 L0.249757576,6.40175758 C0.111575758,6.40175758 6.06060606e-05,6.51327273 6.06060606e-05,6.65145455 L6.06060606e-05,9.58660606 C6.06060606e-05,9.72478788 0.111575758,9.83630303 0.249757576,9.83630303 L2.02975758,9.83630303 L2.02975758,9.99266667 Z" id="Fill-1" fill="#AFB1B4" mask="url(#mask-2)"></path>
            </g>
        </g>
    </g>
</svg>