<?xml version="1.0"?>
<svg xmlns="http://www.w3.org/2000/svg" id="Layer_3" enable-background="new 0 0 64 64" height="512px" viewBox="0 0 64 64" width="512px"><g><path d="m53.614 45.198c.905-1.796 1.386-3.772 1.386-5.803 0-2.993-.348-5.988-1.033-8.901l-2.268-9.638c-.534-2.271-2.535-3.856-4.867-3.856h-.858c-.914-1.207-2.348-2-3.974-2h-3v-2h1c1.654 0 3-1.346 3-3v-6c0-1.654-1.346-3-3-3h-16c-1.654 0-3 1.346-3 3v6c0 1.654 1.346 3 3 3h1v2h-3c-1.627 0-3.061.793-3.974 2h-.858c-2.332 0-4.333 1.585-4.867 3.854l-2.268 9.639c-.685 2.913-1.033 5.908-1.033 8.902 0 2.031.481 4.008 1.386 5.803-3.072.764-5.386 3.667-5.386 7.054v2.586c0 .878.141 1.746.419 2.581 1.113 3.338 4.225 5.581 7.743 5.581h37.676c3.519 0 6.63-2.243 7.744-5.582.277-.834.418-1.702.418-2.58v-2.586c0-3.387-2.314-6.29-5.386-7.054zm-30.614-35.198v-6c0-.552.448-1 1-1h16c.552 0 1 .448 1 1v6c0 .552-.448 1-1 1h-16c-.552 0-1-.448-1-1zm4 3h10v2h-10zm-15.02 17.951 2.268-9.639c.315-1.339 1.483-2.276 2.852-2.307-.065.322-.1.655-.1.995v5h2v-5c0-1.654 1.346-3 3-3h20c1.654 0 3 1.346 3 3v5h2v-5c0-.34-.035-.673-.101-.994 1.37.031 2.537.968 2.852 2.308l2.268 9.639c.65 2.763.98 5.604.98 8.442 0 1.996-.548 3.932-1.576 5.633-1.611.133-3.12.803-4.299 1.948-1.175 1.14-1.893 2.614-2.076 4.214-1.019-.592-2.098-1.074-3.22-1.43-.54-3.581-.828-7.221-.828-10.843v-19.917h-2v19.917c0 3.448.256 6.911.734 10.328-.901-.158-1.816-.245-2.734-.245h-10c-.918 0-1.833.087-2.734.245.478-3.417.734-6.88.734-10.328v-19.917h-2v19.917c0 3.622-.288 7.262-.83 10.843-1.122.356-2.201.838-3.22 1.43-.183-1.6-.901-3.075-2.076-4.214-1.18-1.144-2.671-1.806-4.296-1.944-1.03-1.703-1.578-3.64-1.578-5.637 0-2.839.33-5.68.98-8.444zm45.02 23.887c0 .663-.106 1.319-.315 1.948-.841 2.521-3.191 4.214-5.847 4.214h-37.676c-2.656 0-5.006-1.693-5.846-4.213-.21-.63-.316-1.286-.316-1.949v-2.586c0-2.814 2.174-5.169 4.846-5.249 1.362-.045 2.657.459 3.636 1.408.979.95 1.518 2.225 1.518 3.589v2c0 2.757 2.243 5 5 5h2v-2h-2c-1.654 0-3-1.346-3-3v-.476c2.336-1.625 5.153-2.524 8-2.524h10c2.847 0 5.664.899 8 2.524v.476c0 1.654-1.346 3-3 3h-2v2h2c2.757 0 5-2.243 5-5v-2c0-1.364.539-2.639 1.519-3.589.979-.949 2.279-1.451 3.636-1.408 2.671.08 4.845 2.435 4.845 5.249z" data-original="#000000" class="active-path" data-old_color="#000000" fill="#E6E6E6"/><path d="m62 6c-2.206 0-4-1.794-4-4 0-.553-.447-1-1-1s-1 .447-1 1c0 2.206-1.794 4-4 4-.553 0-1 .447-1 1s.447 1 1 1c2.206 0 4 1.794 4 4 0 .553.447 1 1 1s1-.447 1-1c0-2.206 1.794-4 4-4 .553 0 1-.447 1-1s-.447-1-1-1zm-5 2.687c-.444-.668-1.019-1.243-1.687-1.687.668-.444 1.243-1.019 1.687-1.687.444.668 1.019 1.243 1.687 1.687-.668.444-1.243 1.019-1.687 1.687z" data-original="#000000" class="active-path" data-old_color="#000000" fill="#E6E6E6"/><path d="m7 22c.553 0 1-.447 1-1 0-2.206 1.794-4 4-4 .553 0 1-.447 1-1s-.447-1-1-1c-2.206 0-4-1.794-4-4 0-.553-.447-1-1-1s-1 .447-1 1c0 2.206-1.794 4-4 4-.553 0-1 .447-1 1s.447 1 1 1c2.206 0 4 1.794 4 4 0 .553.447 1 1 1zm0-7.687c.444.668 1.019 1.243 1.687 1.687-.668.444-1.243 1.019-1.687 1.687-.444-.668-1.019-1.243-1.687-1.687.668-.444 1.243-1.019 1.687-1.687z" data-original="#000000" class="active-path" data-old_color="#000000" fill="#E6E6E6"/></g> </svg>
