<?xml version="1.0"?>
<svg xmlns="http://www.w3.org/2000/svg" id="Layer_3" enable-background="new 0 0 64 64" height="512px" viewBox="0 0 64 64" width="512px"><g><path d="m60.066 52.652c1.851-3.128 2.934-6.762 2.934-10.652 0-5.172-1.888-9.905-5-13.568v-8.432c0-2.414-1.721-4.434-4-4.899v-1.101c0-2.757-2.243-5-5-5h-7c-2.818 0-5.51 1.346-7.2 3.601l-6.3 8.399h-26.5c-.553 0-1 .447-1 1v10c0 .48.341.893.812.982l19.874 3.786c-.432 1.676-.686 3.423-.686 5.232 0 3.89 1.083 7.524 2.934 10.652l-1.399 1.399c-.99.99-1.535 2.306-1.535 3.707 0 2.89 2.352 5.242 5.242 5.242 1.4 0 2.717-.545 3.707-1.535l1.399-1.399c3.128 1.851 6.762 2.934 10.652 2.934s7.524-1.083 10.652-2.934l1.399 1.399c.99.99 2.307 1.535 3.707 1.535 2.89 0 5.242-2.352 5.242-5.242 0-1.4-.545-2.717-1.535-3.707zm-23.667-38.852c1.316-1.753 3.409-2.8 5.601-2.8h7c1.654 0 3 1.346 3 3v1h-7v2h8c1.654 0 3 1.346 3 3v6.392c-3.72-3.34-8.619-5.392-14-5.392h-11.001zm-33.399 9.2h4v8.935l-4-.762zm6 9.316v-9.316h24.114c-5.005 2.351-8.926 6.61-10.832 11.845zm19.535 27.735c-.612.612-1.427.949-2.293.949-1.788 0-3.242-1.454-3.242-3.242 0-.866.337-1.681.949-2.293l1.109-1.109c1.284 1.756 2.83 3.302 4.586 4.586zm-5.535-18.051c0-10.477 8.523-19 19-19s19 8.523 19 19-8.523 19-19 19-19-8.523-19-19zm34.758 19c-.866 0-1.681-.337-2.293-.949l-1.109-1.109c1.756-1.284 3.302-2.83 4.586-4.586l1.109 1.109c.612.612.949 1.427.949 2.293 0 1.788-1.454 3.242-3.242 3.242z" data-original="#000000" class="active-path" data-old_color="#000000" fill="#E6E6E6"/><path d="m42 53c-6.065 0-11-4.935-11-11 0-2.32.714-4.539 2.063-6.416l-1.623-1.168c-1.596 2.219-2.44 4.842-2.44 7.584 0 7.168 5.832 13 13 13 2.742 0 5.365-.844 7.584-2.44l-1.168-1.623c-1.877 1.349-4.096 2.063-6.416 2.063z" data-original="#000000" class="active-path" data-old_color="#000000" fill="#E6E6E6"/><path d="m42 29c-2.742 0-5.365.844-7.584 2.44l1.168 1.623c1.877-1.349 4.096-2.063 6.416-2.063 6.065 0 11 4.935 11 11 0 2.32-.714 4.539-2.063 6.416l1.623 1.168c1.596-2.219 2.44-4.842 2.44-7.584 0-7.168-5.832-13-13-13z" data-original="#000000" class="active-path" data-old_color="#000000" fill="#E6E6E6"/><path d="m49 42c0-3.859-3.141-7-7-7s-7 3.141-7 7 3.141 7 7 7 7-3.141 7-7zm-12 0c0-2.757 2.243-5 5-5s5 2.243 5 5-2.243 5-5 5-5-2.243-5-5z" data-original="#000000" class="active-path" data-old_color="#000000" fill="#E6E6E6"/><path d="m2 8c2.206 0 4 1.794 4 4 0 .553.447 1 1 1s1-.447 1-1c0-2.206 1.794-4 4-4 .553 0 1-.447 1-1s-.447-1-1-1c-2.206 0-4-1.794-4-4 0-.553-.447-1-1-1s-1 .447-1 1c0 2.206-1.794 4-4 4-.553 0-1 .447-1 1s.447 1 1 1zm5-2.687c.444.668 1.019 1.243 1.687 1.687-.668.444-1.243 1.019-1.687 1.687-.444-.668-1.019-1.243-1.687-1.687.668-.444 1.243-1.019 1.687-1.687z" data-original="#000000" class="active-path" data-old_color="#000000" fill="#E6E6E6"/><path d="m22 8c2.206 0 4 1.794 4 4 0 .553.447 1 1 1s1-.447 1-1c0-2.206 1.794-4 4-4 .553 0 1-.447 1-1s-.447-1-1-1c-2.206 0-4-1.794-4-4 0-.553-.447-1-1-1s-1 .447-1 1c0 2.206-1.794 4-4 4-.553 0-1 .447-1 1s.447 1 1 1zm5-2.687c.444.668 1.019 1.243 1.687 1.687-.668.444-1.243 1.019-1.687 1.687-.444-.668-1.019-1.243-1.687-1.687.668-.444 1.243-1.019 1.687-1.687z" data-original="#000000" class="active-path" data-old_color="#000000" fill="#E6E6E6"/></g> </svg>
