<?xml version="1.0" encoding="UTF-8"?>
<svg width="20px" height="20px" viewBox="0 0 20 20" version="1.1" xmlns="http://www.w3.org/2000/svg" xmlns:xlink="http://www.w3.org/1999/xlink">
    <!-- Generator: Sketch 57.1 (83088) - https://sketch.com -->
    <title>Group 8</title>
    <desc>Created with Sketch.</desc>
    <defs>
        <polygon id="path-1" points="0 0 20 0 20 19.9999412 0 19.9999412"></polygon>
    </defs>
    <g id="Page-1" stroke="none" stroke-width="1" fill="none" fill-rule="evenodd">
        <g id="Mobile" transform="translate(-84.000000, -4857.000000)">
            <g id="Group-8" transform="translate(84.000000, 4857.000000)">
                <path d="M15.2897059,3.96729412 C14.6379412,3.96729412 14.1097059,4.49552941 14.1097059,5.14729412 C14.1097059,5.79964706 14.6379412,6.32788235 15.2897059,6.32788235 C15.9414706,6.32788235 16.4697059,5.79964706 16.4697059,5.14729412 C16.4697059,4.49552941 15.9414706,3.96729412 15.2897059,3.96729412" id="Fill-1" fill="#1eacc7"></path>
                <path d="M10.0426471,13.6144118 C8.29147059,13.6144118 6.86676471,12.1897059 6.86676471,10.4385294 C6.86676471,8.68735294 8.29147059,7.26264706 10.0426471,7.26264706 C11.7938235,7.26264706 13.2185294,8.68735294 13.2185294,10.4385294 C13.2185294,12.1897059 11.7938235,13.6144118 10.0426471,13.6144118 M10.0426471,5.48088235 C7.30911765,5.48088235 5.085,7.705 5.085,10.4385294 C5.085,13.1720588 7.30911765,15.3961765 10.0426471,15.3961765 C12.7761765,15.3961765 15.0002941,13.1720588 15.0002941,10.4385294 C15.0002941,7.705 12.7761765,5.48088235 10.0426471,5.48088235" id="Fill-3" fill="#1eacc7"></path>
                <g id="Group-7">
                    <mask id="mask-2" fill="white">
                        <use xlink:href="#path-1"></use>
                    </mask>
                    <g id="Clip-6"></g>
                    <path d="M18.2352941,14.0822941 C18.2352941,16.3758235 16.3758824,18.2352353 14.0817647,18.2352353 L5.91823529,18.2352353 C3.62411765,18.2352353 1.76470588,16.3758235 1.76470588,14.0822941 L1.76470588,5.91758824 C1.76470588,3.62405882 3.62411765,1.76464706 5.91823529,1.76464706 L14.0817647,1.76464706 C16.3758824,1.76464706 18.2352941,3.62405882 18.2352941,5.91758824 L18.2352941,14.0822941 Z M13.9523529,-5.88235294e-05 L6.04764706,-5.88235294e-05 C2.70764706,-5.88235294e-05 0,2.707 0,6.047 L0,13.9528824 C0,17.2928824 2.70764706,19.9999412 6.04764706,19.9999412 L13.9523529,19.9999412 C17.2923529,19.9999412 20,17.2928824 20,13.9528824 L20,6.047 C20,2.707 17.2923529,-5.88235294e-05 13.9523529,-5.88235294e-05 L13.9523529,-5.88235294e-05 Z" id="Fill-5" fill="#1eacc7" mask="url(#mask-2)"></path>
                </g>
            </g>
        </g>
    </g>
</svg>