<svg id="Layer_1" data-name="Layer 1" xmlns="http://www.w3.org/2000/svg" viewBox="0 0 1185 1003"><defs><style>.cls-1{fill:#1ea4be;}</style></defs><title>Artboard 1</title><path class="cls-1" d="M215.71,382.38c-.39-.39-.71-21.32-.71-46.51,0-45.8,0-45.8,9.25-51.2,5.09-3,36-20.82,68.75-39.68,89.7-51.67,181.34-104.5,249.09-143.59,14.63-8.44,27.33-15.63,28.23-16,1.94-.74,2.43-.48,57.68,31.41l70.5,40.65,55.5,32c35,20.22,66.28,38.24,116.5,67.19,56.7,32.68,55,31.62,55.3,33.93a7,7,0,0,1-1.7,4.46l-2,2.42c-4.35-2.44-32.83-18.83-66.11-38L766.5,208c-34.82-20-86.24-49.57-103.5-59.52-6.88-4-24.88-14.31-40-23s-32.34-18.65-38.26-22.15S573.07,97,572,97s-38.79,21.21-83.73,47.14-96.57,55.69-114.72,66.15S332.17,234.1,322,240s-35.15,20.25-55.5,32S228.38,294,227,295c-2.5,1.75-2.5,1.75-3,44.65l-.5,42.89C218,383,216.11,382.77,215.71,382.38ZM935,397.5c-.69-.83-1.47-3.52-1.75-6-1-9.08,7.06-20.08,15.6-21.23,3.15-.42,4.35-.09,6.15,1.71,4.81,4.81.18,19.27-7.93,24.73C943.17,399.36,936.87,399.76,935,397.5Zm-49.2,40.27q31.59-63.87,33.89-80.52l.58-4.25c-4.73,0-8.51,5.8-17.71,24-12.47,24.66-19.7,42.48-23.09,56.89C876.34,447.16,876,448.94,876,452v3.12C877.36,454.28,881.38,446.71,885.8,437.77Zm163.82,19.93C1060.39,443.79,1083,408,1083,404.8V404c-4.9,0-21.67,11.74-28.83,18.9A104.62,104.62,0,0,0,1035,450.28c-3,6.37-3,7.72,0,7.72h1.86c1.79,5.81,2.49,8.05,2.7,8.73l.38,1.24C1041.92,467.15,1045.71,462.77,1049.62,457.7ZM767.33,513.75c4.06-5.09,9.08-11.73,11.14-14.75,3.78-5.54,18.53-34.92,18.53-36.93V461c-5,0-14.78,5.83-20.82,11.46-9.77,9.12-18,20.67-22.6,31.68-1.41,3.39-1.38,3.78.45,5.89,2,2.26,4,7.91,4,11.22V523C759.5,523,763.26,518.84,767.33,513.75ZM496,591.06c-6.7-3.55-7.51-5.23-7.41-15.42.08-8.36.52-10.33,5.16-23.14,6.3-17.4,10.27-27,26-63,15.16-34.62,24.46-53.73,26.82-55.1,3.09-1.8,15.31-4.56,17.33-3.92a4.2,4.2,0,0,1,2.43,2c.31.79-3.28,10.34-8,21.21-8.16,18.91-33.11,79.07-42.81,103.25-2.53,6.32-4.38,12.1-4.09,12.85l.52,1.35c18-2.45,36-10.36,52.4-21.45,11.27-7.62,36-32.11,43.34-42.86,5.55-8.14,12.11-20.66,15-28.54,1.25-3.45,1.76-7.85,1.77-15.34,0-9.75-.2-10.88-2.92-15.79-13.65-24.64-53.13-29.25-90.07-10.52-13.88,7-28.5,18.74-28.5,22.81V461h4c0,2.8-9.54,12.28-12.68,13.89-3.7,1.88-11.65,1.38-14.08-.88-7-6.54-3.55-19.19,8.92-32.52,16.26-17.39,45.1-30.42,76.43-34.54,11.56-1.51,33.89-.75,41.91,1.44,16,4.36,30.12,14.92,35.88,26.74,4.11,8.46,6,22.11,4.63,32.85a113.48,113.48,0,0,1-2.56,13.45,37.65,37.65,0,0,0-1.45,6.42v1.48c25-24,49-33.86,57.37-27.26,7.2,5.67-.66,22.71-11.92,25.82-4.4,1.21-6.33.56-7.5-2.53l-.9-2.36c-5,0-25,20-25,23.59v1.2c2.19.84,6.12-.5,10.15-2.43,9.13-4.37,12.41-4.58,15.52-1C683,505.89,684,508,684,509.16c0,2.45-4.34,6.77-12.79,12.74a118.16,118.16,0,0,0-13.72,12.24c-8.59,9-9.52,12.11-4.74,15.89,2.4,1.91,3.66,2.12,9.93,1.73,9.32-.59,16.39-4.12,25.55-12.76,6.89-6.5,6.89-6.5,8.25-15,2.42-15.25,9.08-37,20.17-65.79,3-7.89,5.24-14.61,4.91-14.94s-3.82.43-7.74,1.69c-12.55,4-22.82,3.82-22.82-.49,0-3.07,5-11.32,9-14.7,4.15-3.55,5.52-4,21.55-7.77a77.37,77.37,0,0,0,10.08-2.78c.56-.37,3.82-6.45,7.23-13.49,5.54-11.44,6.58-13,9.77-14.31,4.5-1.88,11.31-1.45,12.72.8.8,1.28.15,3.94-2.76,11.3l-3.82,9.63c.87.87,4.41.46,8.43-.34,8-1.61,10-1.25,15.37,2.85,4.48,3.42,4.68,7.36.51,10.32-1.61,1.15-9.74,4-18.07,6.43s-15.76,5-16.49,5.74c-1.44,1.5-8.16,19.28-16.4,43.39-11.22,32.82-14.42,46.83-12.35,54l.86,3c5.11.5,7.61-.08,9.06-1,2.4-1.57,2.51-2,1.89-7.5-2.2-19.42,9.21-44.69,29.38-65.07,7.82-7.9,15.58-13,23.87-15.84,7.38-2.49,11.23-2.59,17.22-.44,4.55,1.63,4.55,1.63,7.67-1.5,2.67-2.66,3.86-3.12,8.13-3.12,5.58,0,8.15,1.73,8.15,5.47,0,1.28-1.6,6.47-3.56,11.54-7.67,19.86-13.53,49.46-11.35,57.34.9,3.27,3.17,5.22,4.86,4.18.42-.26,1.06-2.95,1.41-6,1-8.78,4.49-20.49,11.69-39.56,4.48-11.89,4.59-13.05,1.53-15.93-3.41-3.2-3.26-5.21.86-11.4,8.68-13,17.71-20.6,23-19.28,3.9,1,7.56,5,7.56,8.31,0,1.54-3.91,14.38-8.7,28.54-8.7,25.74-8.7,25.74-7.5,31.56,1.55,7.5,1.47,11.1-.3,14.2a12.68,12.68,0,0,0-1.46,3.25l0,.75c4.12,0,7-1.93,11-5.75,6-5.75,6-5.75,4.92-14.75-2-15.95,2.6-48.61,10.58-74.93,1.84-6.08,3.21-11.2,3-11.37l-.32-.32c-9.18,5.13-10.46,5.42-12.85,4.58-4-1.4-6-7.35-4.48-13.06,1.62-5.95,6.51-12.13,11.52-14.56,5.42-2.63,9-1.94,11.11,2.17.85,1.65,1.87,3,2.27,2.95s3.5-5.75,6.9-12.75c11.29-23.2,25.47-41.87,34.78-45.76,10.48-4.38,20.53,2.08,20.54,13.19,0,6.05-4.24,21.39-10,36.16-8.2,21-30.4,64.64-48.07,94.4-6.28,10.57-6.68,12.37-5.11,22.76.55,3.59,1.35,4.91,4.08,6.75a11.87,11.87,0,0,0,12.05,1c2.11-1.07,2.62-2.36,3.64-9.23,1.29-8.71,3.47-16,10.87-36.2,4.84-13.2,4.84-13.2,1.72-16.75-3.49-4-3.42-4.7,1.17-11.55q17.6-26.28,27.73-16.08c1.6,1.61,2.92,4,2.92,5.32s-3.65,12.94-8.1,25.83c-9.12,26.37-9.63,28.35-7.89,30.45a12.34,12.34,0,0,1,1.87,4.54l.62,3c2.42.21,2.6-.23,15.11-34.6,6.4-17.6,12.82-33.77,14.27-35.93,4.7-7,16.67-11.15,19.12-6.57,1.18,2.21.35,6.45-3.1,15.88-1.08,3-1.77,5.58-1.53,5.82l.43.44c19-23.88,27.78-30.11,37.81-30.94,4.86-.4,5.56-.18,8.35,2.6,5.46,5.46,4.13,13-6.44,36.64-8.56,19.13-13.69,34.75-13.32,40.5.25,3.67.79,4.77,3,6s3.16,1.25,5.25.3c2.43-1.1,2.59-1.62,2.59-8.13q0-13.81,6.32-28.8c9.11-21.61,32.49-47,52.53-57,7.1-3.54,8.27-3.82,16.32-3.82,7.33,0,9-.32,11-2.06A17.43,17.43,0,0,1,1106,383c3.23,0,4.16.47,5.32,2.68,1.3,2.48,1.11,3.3-2.56,11.25-9.87,21.31-34.42,84.77-33.25,85.93l.63.63C1096.61,460,1115.81,442,1119.24,442a3.6,3.6,0,0,1,2.49,1.25c1,1.24,3.27,9.55,3.27,11.81,0,.65-9.59,10.69-21.32,22.31-12.44,12.32-24.09,24.88-28,30.13-8.57,11.62-17.54,27.45-25.51,45-3.49,7.7-7.33,14.77-8.53,15.71-3.38,2.67-9.84,3.28-14,1.31-4.46-2.12-6.82-6.95-6.82-13.95,0-12.23,5.16-22.51,21.65-43.07,4-4.95,7.91-10.35,8.74-12,3.65-7.21,11.86-28.69,11.56-30.25l-.33-1.72c-11,14.36-23.26,25.7-28.61,28.29a22.92,22.92,0,0,1-10,2.18c-4.28,0-7,.73-11.73,3.19-12,6.18-23,4.28-29.6-5.1-2.74-3.9-3-5-3-12.43,0-11,2.56-20.94,10.58-41.15,3.7-9.34,6.5-17.36,6.21-17.83l-.52-.84c-6.83,6.48-18.18,22.07-29.36,39.08-8.37,12.72-8.84,13.73-9.12,19.49-.43,8.57-4.1,15.54-12.72,24.17-7.68,7.68-17.17,13.15-24.54,14.14a32.26,32.26,0,0,1-9.66-.75c-5.38-1.29-5.57-1.26-12.17,2-12.14,6.07-23.7,6.81-30.42,1.94a13.13,13.13,0,0,0-3.33-2c-.35,0-3.18,2-6.29,4.4-10.38,8-13.29,9.1-25.17,9.11-8.76,0-11.16.36-14.5,2.13-5.36,2.84-11.41,3.73-16.33,2.41-6.82-1.84-13.17-11.17-13.17-19.36,0-1.41-.4-2.82-.89-3.12l-.89-.55c-10.21,15.71-22.62,28.14-29,31.37-5.62,2.84-13.21,3.48-17.61,1.48-2.16-1-3.13-.72-7.28,2-10.08,6.67-21,7.25-29.54,1.57a24.51,24.51,0,0,0-4.3-2.48,82.85,82.85,0,0,0-8.27,5.4c-17,11.87-35.65,15.47-49.21,9.49-5.94-2.63-8.61-5.28-10.62-10.55a23,23,0,0,1,1.93-19.05,50.79,50.79,0,0,1,7.83-8.63L646.5,524c-5.46-4.12-8.5-11.81-8.5-16.66V505c-1.48,0-3.15,2.11-4.67,4.7C621.54,529.82,600,551.55,577,566.53c-16.75,10.91-32.71,18.26-48.5,22.34C510.89,593.43,501.65,594.05,496,591.06ZM384.18,586.5c3.88-6,10.87-16.08,15.53-22.29,8.47-11.3,8.47-11.3,6.81-19-.91-4.24-1.88-8.5-2.16-9.46l-.49-1.75c-1.55,0-3.49,1.58-5.31,3.5s-3.83,3.5-4.48,3.5-2.44-1.37-4-3l-2.78-3c-1.62,2-3.49,6.69-5.2,11.7-7.46,21.85-11.81,46.42-9.21,52.07l1.29,2.82C376.46,598.4,380.29,592.55,384.18,586.5Zm-60.56,18.24c12.28-13,21.94-27,31-45,4.62-9.24,8.41-17.22,8.41-17.75v-1c-2.49,0-6.14,1.4-9.72,3.1-8.32,4-19.81,15.48-27,27.07-6.67,10.72-13.26,27.92-13.26,34.6C313,614.31,314.71,614.15,323.62,604.74ZM224,644.08c-5.58-1.1-6.26-1.86-5.72-6.46.27-2.27,5.1-16.72,10.73-32.12s11.73-32,13.53-37c5.31-14.59,7.47-19.66,9.69-22.78,2.34-3.29,10.88-7.7,14.94-7.71h2.65c1.69,4.42,1.25,7.8-1.25,15.67-1.35,4.26-2.31,7.9-2.12,8.08l.33.34c18.61-23.25,29.22-30.59,38.54-30.59,4.28,0,5.24.41,7.92,3.4s3,3.84,2.45,8.5a65.93,65.93,0,0,1-1.27,7.6l-.68,2.5c18.31-17.54,25.06-22,33.38-24.61,7.32-2.27,12.42-2.39,16.27-.38s4.37,1.94,8.29-1.51c2.81-2.46,4.3-3,8.33-3,2.69,0,5.18.45,5.52,1,1.13,1.83,2.45,1,5-3,5.79-9.16,14.09-16,19.49-16,3.6,0,8.1,3,9.44,6.32a70.63,70.63,0,0,1,2.61,9.93l1.31,6.75c1.68,0,5.08-4.15,8.65-9.23a215.37,215.37,0,0,1,20.92-25.55c3.6-3.61,7-4.1,12.51-1.8,4.09,1.71,6,4.8,4.65,7.4-.54,1-10.23,14.1-21.54,29.1C431.16,552,428,556.72,428,559.61c0,3.95,2.64,21.15,4.08,26.62,2.65,10,10.48,4.89,22.89-15,2.45-3.94,5.15-7.43,6-7.75l1.52-.58a22.18,22.18,0,0,1,4.15,16.21c-1.47,7.36-17.08,25.61-25.13,29.39-5.61,2.63-13.4,3.14-17.28,1.13-5.86-3-9.37-9.43-11.48-20.91l-1.24-6.8-2,0c-.83,6.64-2.3,10.82-3.81,13.57-2.81,5.11-19.4,25.2-22,26.67-2.35,1.31-16.55-.93-20.22-3.2S355,608.18,355,603.55a10.4,10.4,0,0,0-.85-4.38l-.85-1.33c-12.37,17.57-22.21,27.47-28.78,31.26A17.94,17.94,0,0,1,314,632c-12.74,0-21-10.63-21-27,0-4.59,2.07-16.41,3.55-20.25l.67-1.77c-4.72-1.64-6.79-3.2-7.65-4.51-2-3.1-2-12.09,0-17l1.56-3.73-1.32-1.28c-14.09,15.82-36.2,49.73-47.76,71.76C233.21,645.08,232.45,645.74,224,644.08ZM92.36,666c-6.51-3.22-7.75-5.18-8.19-12.9s.68-12.35,7.53-31c3.87-10.56,14.76-36.89,21.3-51.5,24.9-55.59,26.64-59.22,29.34-61,3.22-2.11,14.49-4.77,17.26-4.07l2.4.6c0,3.57-3.65,13.13-8.11,23.54-11.63,27.12-45.76,110-46.49,112.95l-.61,2.45c3.77,1.45,16.82-1.56,24.41-4.64,18.52-7.52,33.31-17.28,49.2-32.46,38-36.33,50.52-72.26,32.16-92.58-19.69-21.78-62.38-20.09-98,3.88-7.75,5.21-15.53,12.74-15.53,15V536h4c0,3.18-10.23,12.76-13.51,14-5.19,2-10.41,1.24-13.57-1.92-6.35-6.35-2.77-18.9,8.93-31.31s26.81-21.37,47.23-28.19c21.67-7.23,50.95-9.81,68.22-6,22.32,4.93,38.23,19.16,42.67,38.15,4.11,17.59-1.52,43.88-13.66,63.76-25.82,42.28-74.13,75.46-120,82.41C99.33,668.42,97.1,668.3,92.36,666ZM689.2,720.8a6.69,6.69,0,0,1-1.2-4c0-3.41,4-5.86,6.83-4.13,2.07,1.3,2.73,6,1.12,7.91C694.5,722.31,690.84,722.44,689.2,720.8Zm-241.45.12c-3.79-2.21-.84-9.37,3.59-8.72a6.13,6.13,0,0,1,3.59,3l1.5,2.68C452.52,722.19,450.45,722.49,447.75,720.92ZM658,729.47v-2.53l3.29-1.27c2,2.73,2.33,4.16,2,4.93l-.53,1.4H658Zm-43.24-15a8.63,8.63,0,0,0-.65-4.39l-.91-1.39-3.2,1.23c0,7.17.72,8.26,3,7.84l1.55-.3ZM608,730v-2l5-1.9v-3c-6.24,0-8.5-3.49-8.5-9.52,0-7.92,4.78-12.23,11-9.86,2.8,1.08,4.79,6.41,4.79,12.88,0,9.1-4.12,15.5-10,15.5H608ZM588.5,713.5v-4l-3.33-.64c-1,3.3-1.07,5.38-.72,6.75l.62,2.49,3.43-.66Zm-6.5,17c0-.81,1.12-2.21,2.5-3.11s2.5-2.23,2.5-3v-1.32a9.84,9.84,0,0,1-8.54-11.79c.94-5,4.73-8.55,8.71-8.15,11.61,1.15,9.39,28.81-2.31,28.81H582Zm59-5.45c1.46-2.73,1.29-4.67-.57-6.53l-1.6-1.61C635.1,720,636.36,727,639,727,639.51,727,640.4,726.13,641,725.07Zm-4.6,6.93c-4-1.58-5.36-4.91-5.36-12.82,0-5.11.52-8.24,1.68-10.22,2-3.38,7.4-6.53,9.69-5.65l1.63.63c0,1.49-1.35,2.89-3,4.06s-3,2.56-3,3.07V712c8.51,0,11.53,12.11,6.75,17.36C642.08,732.3,639.3,733.17,636.36,732Zm-76.11.34-1.25-.51c0-19.05-.43-20.4-3.5-21l-2-.38c0-2.3,2-4,4.5-5.16l4.5-2.19c2.8,3.66,3,25.12,1.46,28l-1,1.93A9.88,9.88,0,0,1,560.25,732.34ZM520,725.07c1.7-3.16,1.29-13.14-.62-15.24a5.33,5.33,0,0,0-2.88-1.83h-1.23c-1.39,5.18-1.4,15.39-.62,17.42l.6,1.58C518.09,727,519.4,726.13,520,725.07Zm-9.78,7.06c-1-.62-1.33-4.13-1.33-13.73,0-7.1,0-13.46.07-14.15L509,703c10.12,0,11.47.45,14.19,2.88,2.94,2.63,3.27,3.5,3.62,9.79.51,9-1.38,13.84-6.24,15.87C516.68,733.16,512.2,733.42,510.18,732.13Zm-18.57-6.88c2.06-2.71,1.76-12.57-.45-15.31l-1.85-2.27c-4.12,1.58-5.55,6.18-5.05,11.55C484.92,726.35,488.53,729.31,491.61,725.25Zm-7.29,6.14c-7.77-3.83-8.57-21.6-1.2-26.76a9.54,9.54,0,0,1,12.32,1.31c2.38,2.48,2.89,4,3.31,9.75.63,8.91-1.27,13.79-6.18,15.85C488.28,733.33,488.25,733.33,484.32,731.39ZM541.5,892.12c-16-9.23-48.35-27.94-72-41.58L401,811c-14-8.11-35.62-20.56-48-27.69-104.69-60.25-134.52-77.61-135.18-78.64-.77-1.2.38-3.73,2.77-6.12l1.61-1.61c6.43,3.64,17.3,9.88,28.3,16.22,36.32,21,97.61,56.24,143,82.35,18.36,10.56,65.35,37.63,112.5,64.8C563.69,893.55,569.87,897,571.82,897c1.09,0,19.24-10,40.33-22.12l65.35-37.65c14.85-8.54,36.9-21.24,49-28.22,39.81-23,68.22-39.3,129.5-74.51,33.28-19.12,61.29-35.45,62.25-36.29,1.62-1.4,1.75-4.87,1.75-45.74,0-47.71-.08-47,5.19-46.3l2.31.33c0,97.85,0,97.85-31,115.79-33.87,19.6-67.8,39.2-128.5,74.21-21.72,12.54-52.1,30.07-67.5,39C580.91,904.61,573.21,909,571.8,908.94,571.08,908.91,557.45,901.34,541.5,892.12Z"/></svg>