<?xml version="1.0" encoding="utf-8"?>
<!-- Generator: Adobe Illustrator 17.0.0, SVG Export Plug-In . SVG Version: 6.00 Build 0)  -->
<!DOCTYPE svg PUBLIC "-//W3C//DTD SVG 1.1//EN" "http://www.w3.org/Graphics/SVG/1.1/DTD/svg11.dtd">
<svg version="1.1" id="Layer_1" xmlns="http://www.w3.org/2000/svg" xmlns:xlink="http://www.w3.org/1999/xlink" x="0px" y="0px"
	 width="317.786px" height="54.662px" viewBox="0 0 317.786 54.662" enable-background="new 0 0 317.786 54.662"
	 xml:space="preserve">
<path d="M4.459,17.945c0.492,1.308,1.07,2.35,1.732,3.127c1.154,1.355,2.587,2.032,4.299,2.032c0.927,0,1.729-0.294,2.406-0.881
	c0.676-0.587,1.015-1.407,1.015-2.459c0-0.948-0.34-1.772-1.021-2.473c-0.445-0.445-1.381-1.113-2.809-2.004l-2.483-1.549
	c-0.747-0.474-1.343-0.952-1.788-1.436c-0.824-0.919-1.237-1.933-1.237-3.042c0-1.469,0.488-2.691,1.464-3.667
	s2.269-1.464,3.88-1.464c0.663,0,1.462,0.163,2.395,0.49s1.466,0.49,1.599,0.49c0.36,0,0.609-0.085,0.746-0.256
	c0.137-0.171,0.244-0.412,0.32-0.725h0.597l0.64,6.197h-0.696c-0.474-1.867-1.234-3.169-2.281-3.909
	c-1.047-0.739-2.082-1.109-3.106-1.109c-0.796,0-1.49,0.235-2.082,0.704C7.457,6.48,7.161,7.131,7.161,7.965
	c0,0.749,0.227,1.388,0.681,1.919c0.454,0.54,1.158,1.104,2.115,1.691l2.556,1.578c1.6,0.985,2.728,1.89,3.385,2.715
	c0.647,0.834,0.97,1.819,0.97,2.956c0,1.526-0.576,2.8-1.727,3.823s-2.622,1.535-4.413,1.535c-0.9,0-1.841-0.171-2.821-0.512
	c-0.981-0.341-1.542-0.512-1.684-0.512c-0.341,0-0.571,0.104-0.689,0.313s-0.197,0.431-0.235,0.668h-0.64l-0.867-6.197h0.667V17.945
	z"/>
<path d="M27.427,4.542v0.54c-1.118,0.076-1.843,0.263-2.175,0.561s-0.497,0.983-0.497,2.054v9.309c0,1.526,0.208,2.715,0.625,3.567
	c0.777,1.554,2.25,2.331,4.42,2.331c2.378,0,3.975-0.796,4.79-2.388c0.455-0.891,0.682-2.265,0.682-4.122V8.819
	c0-1.582-0.19-2.575-0.569-2.978s-1.099-0.656-2.16-0.76v-0.54h6.737v0.54c-1.128,0.123-1.864,0.396-2.21,0.817
	c-0.346,0.422-0.519,1.395-0.519,2.921v7.575c0,2.009-0.308,3.577-0.924,4.704c-1.137,2.075-3.297,3.113-6.481,3.113
	c-3.146,0-5.287-1.023-6.424-3.07c-0.616-1.099-0.924-2.549-0.924-4.349V7.696c0-1.061-0.163-1.741-0.49-2.04
	c-0.327-0.298-1.04-0.49-2.139-0.576V4.54h8.258V4.542z"/>
<path d="M3.791,50.067l12.763-17.823H9.845c-1.687,0-2.885,0.422-3.596,1.265c-0.426,0.502-0.763,1.369-1.009,2.601H4.487
	l0.583-4.975h15.364v0.327L7.671,49.285h7.553c1.713,0,2.962-0.403,3.747-1.208c0.488-0.512,0.927-1.445,1.321-2.8h0.682
	l-0.725,5.117H3.791V50.067z"/>
<path d="M24.918,49.854c1.184-0.085,1.952-0.262,2.302-0.531c0.351-0.268,0.526-0.963,0.526-2.085V34.291
	c0-1.071-0.175-1.76-0.526-2.068c-0.351-0.308-1.118-0.49-2.302-0.547v-0.54h8.613v0.54c-1.184,0.057-1.952,0.239-2.302,0.547
	c-0.351,0.308-0.526,0.997-0.526,2.068v12.948c0,1.122,0.175,1.817,0.526,2.085c0.351,0.269,1.118,0.445,2.302,0.531v0.54h-8.613
	V49.854z"/>
<path d="M53.837,17.945c0.49,1.308,1.068,2.35,1.732,3.127c1.154,1.355,2.587,2.032,4.299,2.032c0.926,0,1.729-0.294,2.404-0.881
	c0.677-0.587,1.016-1.407,1.016-2.459c0-0.948-0.341-1.772-1.021-2.473c-0.445-0.445-1.381-1.113-2.809-2.004l-2.483-1.549
	c-0.749-0.474-1.343-0.952-1.788-1.436c-0.824-0.919-1.237-1.933-1.237-3.042c0-1.469,0.488-2.691,1.464-3.667
	c0.976-0.976,2.269-1.464,3.88-1.464c0.663,0,1.462,0.163,2.395,0.49s1.466,0.49,1.599,0.49c0.36,0,0.609-0.085,0.746-0.256
	c0.137-0.171,0.244-0.412,0.32-0.725h0.597l0.64,6.197h-0.696c-0.474-1.867-1.234-3.169-2.281-3.909
	c-1.047-0.739-2.082-1.109-3.106-1.109c-0.796,0-1.49,0.235-2.082,0.704s-0.888,1.12-0.888,1.954c0,0.749,0.227,1.388,0.68,1.919
	c0.455,0.54,1.158,1.104,2.115,1.691l2.556,1.578c1.601,0.985,2.729,1.89,3.385,2.715c0.647,0.834,0.971,1.819,0.971,2.956
	c0,1.526-0.576,2.8-1.727,3.823c-1.151,1.023-2.622,1.535-4.413,1.535c-0.9,0-1.841-0.171-2.821-0.512
	c-0.981-0.341-1.542-0.512-1.684-0.512c-0.341,0-0.571,0.104-0.689,0.313c-0.118,0.208-0.197,0.431-0.235,0.668h-0.64l-0.867-6.197
	h0.668V17.945z"/>
<path d="M68.578,23.801v-0.54c0.749-0.084,1.31-0.366,1.684-0.844c0.374-0.48,1.016-1.79,1.923-3.93l6.064-14.285h0.58l7.253,16.501
	c0.483,1.093,0.867,1.77,1.158,2.029c0.289,0.258,0.775,0.435,1.457,0.529v0.54h-7.403v-0.54c0.85-0.076,1.398-0.167,1.644-0.276
	c0.246-0.108,0.37-0.374,0.37-0.799c0-0.141-0.047-0.391-0.142-0.749c-0.095-0.359-0.227-0.737-0.398-1.132l-1.165-2.8h-7.67
	c-0.756,1.905-1.208,3.066-1.355,3.486s-0.22,0.752-0.22,0.997c0,0.49,0.199,0.83,0.597,1.019c0.246,0.114,0.708,0.198,1.39,0.255
	v0.54L68.578,23.801L68.578,23.801z M81.114,16.325l-3.335-8.016l-3.352,8.016C74.427,16.325,81.114,16.325,81.114,16.325z"/>
<path d="M51.179,49.854c1.071-0.113,1.765-0.303,2.082-0.572s0.476-0.95,0.476-2.043V34.291c0-1.033-0.156-1.708-0.469-2.025
	s-1.009-0.514-2.089-0.59v-0.54h15.464l0.099,4.164h-0.739c-0.246-1.283-0.616-2.113-1.109-2.49
	c-0.493-0.378-1.592-0.566-3.297-0.566h-3.963c-0.429,0-0.692,0.069-0.791,0.206s-0.149,0.396-0.149,0.775v6.495h4.491
	c1.241,0,2.032-0.184,2.374-0.552c0.341-0.367,0.616-1.112,0.824-2.234h0.682v6.723h-0.682c-0.218-1.128-0.497-1.874-0.839-2.239
	c-0.341-0.365-1.128-0.547-2.359-0.547h-4.491v7.206c0,0.578,0.182,0.919,0.547,1.023s1.459,0.156,3.281,0.156
	c1.973,0,3.43-0.216,4.37-0.647c0.938-0.431,1.784-1.476,2.532-3.134h0.81l-1.322,4.918H51.179V49.854z"/>
<path d="M70.11,49.854c1.071-0.113,1.765-0.303,2.082-0.572s0.476-0.95,0.476-2.043V34.291c0-1.033-0.156-1.708-0.469-2.025
	s-1.009-0.514-2.089-0.59v-0.54h15.464l0.099,4.164h-0.738c-0.246-1.283-0.616-2.113-1.109-2.49
	c-0.493-0.378-1.592-0.566-3.297-0.566h-3.964c-0.429,0-0.692,0.069-0.791,0.206s-0.149,0.396-0.149,0.775v6.495h4.491
	c1.241,0,2.032-0.184,2.374-0.552c0.341-0.367,0.616-1.112,0.824-2.234h0.682v6.723h-0.682c-0.218-1.128-0.497-1.874-0.839-2.239
	c-0.341-0.365-1.128-0.547-2.359-0.547h-4.491v7.206c0,0.578,0.182,0.919,0.547,1.023s1.459,0.156,3.281,0.156
	c1.973,0,3.43-0.216,4.37-0.647c0.938-0.431,1.784-1.476,2.532-3.134h0.81l-1.322,4.918H70.11V49.854z"/>
<rect x="44.758" y="4.258" fill="#ED1C24" width="0.695" height="46.136"/>
<g>
	<text transform="matrix(1 0 0 1 99.3503 11.6733)" font-family="'GothamPro-Bold'" font-size="8.7894">Srpsko udruženje za zemljotresno inženjerstvo</text>
	<text transform="matrix(1 0 0 1 99.3503 25.6869)" font-family="'GothamPro-Bold'" font-size="8.7894">Serbian Association for Earthquake Engineering    </text>
</g>
<g>
	<text transform="matrix(1 0 0 1 99.3496 49.9318)" fill="#ED1C24" font-family="'GothamPro-Bold'" font-size="9.3206">Member of IAEE </text>
</g>
</svg>
